<svg width="837" height="299" viewBox="0 0 837 299" fill="none" xmlns="http://www.w3.org/2000/svg">
    <g clip-path="url(#clip0_654_61)">
    <path d="M56.4155 118.211C45.244 126.246 40.4131 136.107 42.2247 145.238C43.7344 152.542 48.8672 166.056 53.3962 182.491C65.4735 170.804 76.645 162.038 88.1184 155.829C89.0242 155.099 92.6474 154.368 93.8551 154.734C96.2706 155.829 93.2513 157.29 91.4397 158.386C81.4759 163.134 68.7947 174.821 55.2078 189.431C58.831 204.04 61.8503 220.11 61.8503 236.911C61.8503 275.625 34.9783 299 17.4663 299C-7.29215 299 -8.49988 255.537 31.959 206.596C37.6957 199.657 43.1305 193.448 48.2634 187.97C44.3382 173.726 39.5073 160.212 37.3938 149.62C32.8648 129.533 43.7344 113.828 52.7923 112.732C59.7368 111.636 59.4349 116.384 56.4155 118.211ZM56.4155 232.163C56.4155 220.11 53.6981 207.327 50.3769 194.909L37.3938 210.249C0.860016 254.807 1.46388 292.791 14.447 292.791C33.7706 292.791 56.4155 265.764 56.4155 232.163ZM95.6667 194.909C98.0822 188.7 101.101 183.222 103.819 178.839C102.309 177.013 100.8 175.187 99.8938 172.63C94.459 158.751 104.423 142.316 117.708 142.316C130.993 142.316 139.145 157.29 139.145 180.3V181.396C140.353 181.396 141.56 181.396 143.07 181.03C158.167 179.569 186.246 170.804 198.928 165.325C201.041 164.23 202.551 168.247 201.041 168.978C194.399 172.265 159.978 185.778 142.164 187.604C140.957 187.97 139.749 187.97 138.843 187.97C136.126 223.032 114.688 251.52 100.8 251.52C87.2126 251.52 83.5894 223.397 95.6667 194.909ZM99.5918 244.946C113.179 244.946 129.483 220.11 132.201 187.97C124.048 187.97 115.292 186.509 108.952 182.856C106.536 186.874 103.819 191.622 101.705 196.37C90.2319 223.397 93.8551 244.946 99.5918 244.946ZM119.821 166.786C119.821 167.517 116.5 171.169 112.575 177.013C118.01 179.935 125.256 181.396 132.804 181.396V177.743C132.804 158.751 125.256 148.525 116.802 148.525C108.65 148.525 101.101 158.021 105.329 168.978C105.932 170.804 106.838 171.9 107.744 173.36C112.273 167.517 116.198 164.23 117.104 164.23C118.915 164.23 119.821 165.325 119.821 166.786ZM300.075 163.134C304.302 163.134 305.811 167.152 301.283 167.882C288.299 170.439 232.14 184.317 212.816 195.274C211.911 198.927 210.099 203.309 208.287 207.327C196.512 231.067 179 234.354 175.377 227.78C172.961 223.032 181.113 206.962 204.966 193.813C205.268 193.813 205.57 193.448 206.174 193.083C208.287 186.509 208.891 180.665 207.382 177.743C205.872 174.821 200.739 177.013 192.889 185.413C185.642 193.448 178.396 201.118 175.075 200.388C170.546 199.657 172.961 186.509 174.169 181.03C183.831 139.759 195.002 83.8789 209.495 29.8247C215.534 7.18036 219.761 -3.41134 223.988 0.971431C226.705 4.25851 226.101 15.2154 221.572 25.4419C216.742 37.1293 215.232 44.7992 213.118 51.7385C195.606 112.732 190.171 141.22 179.302 181.03C178.698 183.952 175.981 192.718 177.49 192.718C178.698 192.718 184.435 186.509 189.568 180.3C199.833 168.247 207.985 165.325 211.911 168.978C214.93 171.534 216.138 178.839 214.326 189.065C243.312 175.552 289.507 163.134 300.075 163.134ZM201.947 204.04L202.853 201.483C190.473 210.249 179.906 220.11 181.415 223.397C182.925 225.954 195.908 217.553 201.947 204.04ZM310.34 221.206C303.698 220.11 299.169 211.71 306.415 193.448C309.435 185.413 311.548 180.665 311.548 178.839C311.548 177.378 310.642 176.282 304.302 173.36C296.15 169.708 294.942 160.212 296.452 152.908C299.169 139.759 307.925 135.742 312.454 136.837C314.869 137.568 318.191 141.585 317.889 144.507C316.983 154.003 312.152 160.212 304 165.691C304.604 166.421 305.51 167.152 306.717 167.517C317.889 172.995 319.398 174.091 319.398 177.378C319.398 180.3 316.077 186.144 312.152 196.37C307.623 207.692 307.321 212.44 312.454 213.171C329.362 215.727 372.538 199.292 404.241 166.421C407.261 163.134 410.884 165.691 408.167 168.612C376.162 205.501 325.739 223.762 310.34 221.206ZM302.49 154.734C301.886 156.925 301.584 159.116 302.188 161.308C310.944 154.734 313.058 149.255 313.36 144.142C313.36 143.412 313.36 143.046 312.756 142.681C309.737 141.585 304 148.89 302.49 154.734ZM408.468 214.266C392.768 215.727 385.824 199.657 392.164 182.856C398.203 166.056 410.28 159.482 416.621 160.943C422.357 162.038 424.169 167.882 421.753 176.282C418.13 187.604 406.959 195.64 396.089 200.022C397.297 205.136 401.222 207.692 406.657 207.327C420.546 205.866 439.869 194.179 494.519 165.325C498.444 163.134 499.35 167.882 496.935 168.978C451.041 193.448 425.075 212.805 408.468 214.266ZM397.599 185.413C396.089 189.431 395.485 192.718 395.485 195.64C404.241 191.987 414.809 181.761 417.224 173.726C418.13 170.439 417.828 167.152 415.715 166.421C412.394 165.325 402.732 170.073 397.599 185.413ZM646.995 228.876C639.145 228.876 639.748 219.745 643.372 194.909C647.297 168.612 647.901 165.325 646.391 164.595C644.277 163.134 633.71 175.917 625.86 187.604C616.198 201.849 611.669 205.501 608.046 204.77C604.724 204.04 603.819 199.657 607.744 174.091C611.065 154.003 611.669 142.316 609.253 140.49C605.932 138.298 602.007 141.951 585.401 174.091C567.285 210.249 563.36 226.684 558.529 226.684C555.811 226.684 554.905 223.762 555.509 218.649C558.227 198.927 559.435 177.378 559.736 169.343C560.038 162.038 568.191 162.038 567.587 170.073C566.681 178.474 563.662 195.64 562.152 205.866C561.548 211.345 568.19 196.37 580.57 171.169C595.968 140.49 603.215 131.359 609.857 132.82C618.613 135.011 616.5 150.351 612.877 174.456L610.159 192.353C609.253 198.196 611.065 199.657 614.99 193.813C616.802 191.622 619.217 188.7 621.331 185.413C632.502 168.978 643.372 155.829 648.203 155.829C651.524 155.829 653.335 159.847 653.335 163.864C653.335 167.882 652.128 178.474 649.108 195.274C645.183 217.188 645.485 222.667 648.203 222.667C662.393 222.667 701.343 194.909 741.5 165.325C743.009 164.23 748.746 166.421 743.915 170.073C716.137 191.987 666.922 228.876 646.995 228.876ZM835.099 163.864C836.608 163.864 837.816 167.517 836.306 168.247C832.683 169.343 818.19 179.204 783.468 193.448C755.992 204.77 749.048 206.596 744.217 206.596C736.367 206.596 733.951 200.022 733.951 194.179C733.951 188.7 735.159 179.204 736.971 172.995C738.178 167.882 739.688 164.96 744.821 163.864C746.331 163.499 748.142 165.691 746.331 169.708C741.802 181.03 740.896 187.97 740.292 193.813C739.99 198.196 741.5 200.388 743.009 200.388C746.934 200.388 755.388 199.292 781.053 188.335C810.642 175.552 833.287 163.864 835.099 163.864ZM750.859 137.933C749.35 137.203 748.142 130.994 748.746 128.437C749.35 126.246 751.765 122.228 753.577 122.593C756.294 123.324 758.106 127.707 757.502 130.994C756.596 134.281 752.671 138.298 750.859 137.933Z" fill="#0D0D0D"/>
    </g>
    <defs>
    <clipPath id="clip0_654_61">
    <rect width="837" height="299" fill="white"/>
    </clipPath>
    </defs>
    </svg>
    