<svg width="727" height="299" viewBox="0 0 727 299" fill="none" xmlns="http://www.w3.org/2000/svg">
    <g clip-path="url(#clip0_682_233)">
    <path d="M0.104915 200.005C-0.782256 191.849 3.94932 180.856 14.5954 170.217C24.0585 160.643 31.4516 158.87 36.4789 158.87C43.2805 158.87 42.6891 167.735 39.7318 166.317C35.8874 164.543 28.4944 165.962 19.0312 174.473C9.56806 182.984 6.01938 191.494 6.3151 197.523C6.61083 204.97 15.7783 208.162 25.5371 206.743C47.4207 203.906 95.6236 177.31 116.62 163.834C118.099 162.77 124.309 163.125 119.577 167.026C97.3979 184.048 47.4207 208.871 27.3115 212.417C13.4125 214.899 1.58353 212.062 0.104915 200.005ZM97.6936 192.558C100.059 186.53 103.017 181.211 105.678 176.955C104.2 175.182 102.721 173.409 101.834 170.927C96.5107 157.451 106.27 141.493 119.281 141.493C132.293 141.493 140.278 156.033 140.278 178.374V179.437C141.461 179.437 142.644 179.437 144.122 179.083C158.908 177.664 186.411 169.153 198.831 163.834C200.901 162.77 202.38 166.671 200.901 167.38C194.395 170.572 160.683 183.693 143.235 185.466C142.052 185.821 140.869 185.821 139.982 185.821C137.321 219.864 116.324 247.524 102.721 247.524C89.4134 247.524 85.8647 220.219 97.6936 192.558ZM101.538 241.141C114.846 241.141 130.815 217.027 133.476 185.821C125.492 185.821 116.916 184.402 110.705 180.856C108.34 184.757 105.678 189.367 103.608 193.977C92.3706 220.219 95.9193 241.141 101.538 241.141ZM121.351 165.253C121.351 165.962 118.099 169.508 114.254 175.182C119.577 178.019 126.675 179.437 134.068 179.437V175.891C134.068 157.451 126.675 147.522 118.394 147.522C110.41 147.522 103.017 156.742 107.157 167.38C107.748 169.153 108.635 170.217 109.523 171.636C113.958 165.962 117.803 162.77 118.69 162.77C120.464 162.77 121.351 163.834 121.351 165.253ZM198.24 165.607C198.831 162.77 200.901 162.77 202.38 162.416C204.154 162.416 205.041 163.125 204.745 166.317C204.154 173.054 200.31 185.466 199.718 188.303C199.422 189.012 199.718 189.721 200.605 189.721C201.493 189.721 210.069 184.757 215.983 181.211C224.559 175.891 230.473 171.99 234.909 171.99C239.345 171.99 242.894 176.246 242.894 183.338C242.302 193.268 242.598 199.296 245.26 199.651C250.583 201.069 269.805 193.977 284.591 186.53L330.132 163.834C332.794 162.416 334.272 167.38 331.019 169.153C318.895 176.6 302.038 184.757 286.365 192.913C270.988 200.715 250.878 208.516 242.007 206.389C235.796 204.97 234.318 197.523 234.909 187.594C235.205 182.274 234.909 180.147 234.022 179.437C232.543 178.374 229.291 179.792 223.672 183.338C218.94 186.175 202.675 196.105 200.014 196.105C198.24 196.105 192.917 193.622 192.917 190.785C192.917 189.012 196.761 176.955 198.24 165.607ZM317.416 298.944C313.572 300.008 310.91 285.823 311.206 259.581C311.797 237.95 316.233 163.48 325.105 106.386C327.175 93.2649 329.245 81.5625 331.315 70.9239C273.649 70.9239 268.326 71.2785 267.143 65.9592C266.552 62.7676 274.832 58.5122 277.198 60.2853C280.155 62.413 282.225 63.4769 290.801 63.4769L332.794 63.8315C342.257 18.4402 351.129 0 355.269 0C357.634 0 359.409 8.51086 358.817 11.7024C357.93 15.9579 356.747 9.92934 353.494 18.4402C352.903 19.5041 346.693 39.0081 341.074 63.8315C351.424 63.8315 355.269 64.8954 384.545 64.8954C411.752 64.8954 418.849 63.1223 419.736 67.0231C420.328 71.2785 405.837 70.9239 383.658 70.9239H339.3C336.638 83.6902 333.977 97.1657 332.202 110.287C329.541 127.663 325.105 158.515 321.26 195.75C318.895 215.963 315.937 266.319 317.712 283.341C319.19 296.816 321.556 298.235 317.416 298.944ZM411.16 208.871C431.861 208.871 491.893 175.537 509.932 163.834C511.411 162.77 517.621 163.125 512.594 167.026C493.076 182.274 430.382 216.318 410.865 216.318C396.374 216.318 392.234 206.034 392.234 198.587C392.234 191.14 393.417 187.594 392.826 186.884C391.938 185.821 390.164 186.175 380.701 192.204C372.125 198.232 362.662 202.842 359.705 202.842C355.564 202.842 352.607 199.651 352.607 197.523C352.607 190.785 356.156 181.565 367.393 171.636C376.856 162.77 382.771 160.997 387.798 160.997C394.6 160.997 398.74 173.764 395.783 173.764C392.826 173.764 391.938 166.671 388.685 166.671C385.728 166.671 379.814 169.508 371.533 176.246C363.845 182.274 357.93 192.558 357.93 195.395C357.93 196.105 358.226 196.459 359.113 196.459C361.775 196.459 366.802 193.977 375.082 189.012C386.32 182.629 393.713 177.664 397.261 177.664C398.444 177.664 401.106 178.374 401.106 180.856C401.106 183.693 398.149 190.076 398.149 198.232C398.149 204.261 403.472 208.871 411.16 208.871ZM484.796 200.005C483.908 191.849 488.64 180.856 499.286 170.217C508.749 160.643 516.142 158.87 521.169 158.87C527.971 158.87 527.38 167.735 524.422 166.317C520.578 164.543 513.185 165.962 503.722 174.473C494.259 182.984 490.71 191.494 491.006 197.523C491.301 204.97 500.469 208.162 510.228 206.743C532.111 203.906 580.314 177.31 601.311 163.834C602.789 162.77 608.999 163.125 604.268 167.026C582.089 184.048 532.111 208.871 512.002 212.417C498.103 214.899 486.274 212.062 484.796 200.005ZM589.482 298.944C585.637 300.008 582.976 285.823 583.271 259.581C583.863 237.95 588.299 163.48 597.17 106.386C599.24 93.2649 601.311 81.5625 603.381 70.9239C545.715 70.9239 540.392 71.2785 539.209 65.9592C538.617 62.7676 546.897 58.5122 549.263 60.2853C552.22 62.413 554.291 63.4769 562.867 63.4769L604.859 63.8315C614.322 18.4402 623.194 0 627.334 0C629.7 0 631.474 8.51086 630.883 11.7024C629.996 15.9579 628.813 9.92934 625.56 18.4402C624.968 19.5041 618.758 39.0081 613.139 63.8315C623.49 63.8315 627.334 64.8954 656.611 64.8954C683.817 64.8954 690.915 63.1223 691.802 67.0231C692.393 71.2785 677.903 70.9239 655.724 70.9239H611.365C608.704 83.6902 606.042 97.1657 604.268 110.287C601.606 127.663 597.17 158.515 593.326 195.75C590.96 215.963 588.003 266.319 589.777 283.341C591.256 296.816 593.622 298.235 589.482 298.944ZM623.194 192.558C625.56 186.53 628.517 181.211 631.179 176.955C629.7 175.182 628.221 173.409 627.334 170.927C622.011 157.451 631.77 141.493 644.782 141.493C657.794 141.493 665.778 156.033 665.778 178.374V179.437C666.961 179.437 668.144 179.437 669.623 179.083C684.409 177.664 711.911 169.153 724.331 163.834C726.402 162.77 727.88 166.671 726.402 167.38C719.896 170.572 686.183 183.693 668.735 185.466C667.553 185.821 666.37 185.821 665.482 185.821C662.821 219.864 641.825 247.524 628.221 247.524C614.914 247.524 611.365 220.219 623.194 192.558ZM627.038 241.141C640.346 241.141 656.315 217.027 658.977 185.821C650.992 185.821 642.416 184.402 636.206 180.856C633.84 184.757 631.179 189.367 629.109 193.977C617.871 220.219 621.42 241.141 627.038 241.141ZM646.852 165.253C646.852 165.962 643.599 169.508 639.755 175.182C645.078 178.019 652.175 179.437 659.568 179.437V175.891C659.568 157.451 652.175 147.522 643.895 147.522C635.91 147.522 628.517 156.742 632.657 167.38C633.249 169.153 634.136 170.217 635.023 171.636C639.459 165.962 643.303 162.77 644.19 162.77C645.965 162.77 646.852 163.834 646.852 165.253Z" fill="#0D0D0D"/>
    </g>
    <defs>
    <clipPath id="clip0_682_233">
    <rect width="727" height="299" fill="white"/>
    </clipPath>
    </defs>
    </svg>
    