<svg width="943" height="212" viewBox="0 0 943 212" fill="none" xmlns="http://www.w3.org/2000/svg">
    <path
        d="M39.6235 112.392C51.1342 90.647 64.1945 67.1911 73.713 49.8436L79.0256 33.9621C87.88 7.57428 88.7655 4.39797 90.7577 4.39797C92.75 4.39797 96.0704 9.28459 95.6276 11.7279C95.4063 12.9496 89.6509 24.9218 81.0179 42.2693C71.9421 72.3221 60.4314 107.994 50.4701 147.332C39.6235 189.846 38.738 207.682 40.7303 208.17C42.5012 208.659 40.0662 212.568 37.6312 211.102C34.3108 209.148 36.0817 189.357 46.9284 144.889C53.7906 116.79 61.3168 90.4026 68.4003 67.1911C60.4314 82.0954 51.5769 98.4656 42.9439 113.614C46.2643 115.324 48.6993 117.035 50.0274 118.256C51.3556 119.722 50.2488 121.433 48.4779 120.455L40.9517 116.79C14.8311 161.992 11.5107 167.611 7.30489 167.611C3.76312 167.611 0 161.992 0 154.173C0 134.627 13.2816 110.682 31.2118 110.682C33.8681 110.682 36.9672 111.415 39.6235 112.392ZM7.30489 163.213C9.73985 163.213 29.6623 130.717 37.6312 115.813C36.3031 115.569 34.9749 115.324 33.6468 115.324C17.0447 115.324 5.09129 138.047 5.09129 153.929C5.09129 158.082 5.31265 163.213 7.30489 163.213ZM84.5596 145.622C73.0489 146.599 67.9576 135.848 72.6062 124.609C77.0334 113.37 85.8878 108.972 90.5364 109.949C94.7422 110.682 96.0704 114.591 94.2995 120.211C91.6432 127.785 83.4528 133.161 75.4839 136.093C76.3693 139.513 79.247 141.224 83.2315 140.979C93.414 140.002 107.581 132.183 147.647 112.881C150.525 111.415 151.189 114.591 149.418 115.324C115.771 131.695 96.7344 144.644 84.5596 145.622ZM76.5907 126.319C75.4839 129.007 75.0411 131.206 75.0411 133.161C81.4606 130.717 89.2082 123.876 90.9791 118.501C91.6432 116.302 91.4218 114.103 89.8723 113.614C87.4373 112.881 80.3538 116.057 76.5907 126.319ZM259.434 155.395C253.679 155.395 254.122 149.287 256.778 132.672C259.656 115.08 260.098 112.881 258.992 112.392C257.442 111.415 249.694 119.967 243.939 127.785C236.855 137.314 233.535 139.758 230.879 139.269C228.444 138.78 227.78 135.848 230.657 118.745C233.092 105.307 233.535 97.4883 231.764 96.2666C229.329 94.8006 226.452 97.2439 214.277 118.745C200.995 142.934 198.117 153.929 194.576 153.929C192.583 153.929 191.919 151.974 192.362 148.554C194.354 135.36 195.24 120.944 195.461 115.569C195.682 110.682 201.659 110.682 201.216 116.057C200.552 121.677 198.339 133.161 197.232 140.002C196.789 143.667 201.659 133.649 210.735 116.79C222.024 96.2666 227.337 90.1583 232.207 91.1356C238.626 92.6016 237.077 102.864 234.421 118.989L232.428 130.962C231.764 134.871 233.092 135.848 235.97 131.939C237.298 130.473 239.069 128.518 240.619 126.319C248.809 115.324 256.778 106.529 260.32 106.529C262.755 106.529 264.083 109.216 264.083 111.904C264.083 114.591 263.197 121.677 260.984 132.916C258.106 147.576 258.327 151.241 260.32 151.241C270.724 151.241 299.279 132.672 328.72 112.881C329.827 112.148 334.033 113.614 330.491 116.057C310.126 130.717 274.044 155.395 259.434 155.395ZM314.332 132.672C316.102 128.518 318.316 124.853 320.308 121.921C319.202 120.7 318.095 119.478 317.431 117.768C313.446 108.483 320.751 97.4882 330.491 97.4882C340.231 97.4882 346.207 107.506 346.207 122.899V123.632C347.093 123.632 347.978 123.632 349.085 123.387C360.153 122.41 380.74 116.546 390.037 112.881C391.586 112.148 392.693 114.836 391.586 115.324C386.716 117.523 361.481 126.564 348.421 127.785C347.536 128.03 346.65 128.03 345.986 128.03C343.994 151.485 328.277 170.543 318.095 170.543C308.134 170.543 305.477 151.73 314.332 132.672ZM317.209 166.145C327.17 166.145 339.124 149.531 341.116 128.03C335.139 128.03 328.72 127.052 324.071 124.609C322.301 127.297 320.308 130.473 318.759 133.649C310.347 151.73 313.003 166.145 317.209 166.145ZM332.04 113.858C332.04 114.347 329.605 116.79 326.728 120.7C330.712 122.654 336.025 123.632 341.559 123.632V121.188C341.559 108.483 336.025 101.642 329.827 101.642C323.85 101.642 318.316 107.994 321.415 115.324C321.858 116.546 322.522 117.279 323.186 118.256C326.506 114.347 329.384 112.148 330.048 112.148C331.376 112.148 332.04 112.881 332.04 113.858ZM389.594 114.103C390.037 112.148 391.586 112.148 392.693 111.904C394.021 111.904 394.685 112.392 394.464 114.591C394.021 119.234 391.144 127.785 390.701 129.74C390.48 130.229 390.701 130.717 391.365 130.717C392.029 130.717 398.449 127.297 402.876 124.853C409.295 121.188 413.722 118.501 417.043 118.501C420.363 118.501 423.02 121.433 423.02 126.319C422.577 133.161 422.798 137.314 424.79 137.559C428.775 138.536 443.163 133.649 454.231 128.518L488.321 112.881C490.313 111.904 491.42 115.324 488.985 116.546C479.909 121.677 467.292 127.297 455.559 132.916C444.049 138.292 428.996 143.667 422.355 142.201C417.707 141.224 416.6 136.093 417.043 129.251C417.264 125.586 417.043 124.12 416.379 123.632C415.272 122.899 412.837 123.876 408.631 126.319C405.089 128.274 392.914 135.115 390.922 135.115C389.594 135.115 385.61 133.405 385.61 131.45C385.61 130.229 388.487 121.921 389.594 114.103ZM511.785 143.911C527.28 143.911 572.216 120.944 585.719 112.881C586.826 112.148 591.475 112.392 587.712 115.08C573.102 125.586 526.173 149.042 511.564 149.042C500.717 149.042 497.618 141.957 497.618 136.826C497.618 131.695 498.503 129.251 498.061 128.763C497.397 128.03 496.068 128.274 488.985 132.428C482.565 136.581 475.482 139.758 473.268 139.758C470.169 139.758 467.956 137.559 467.956 136.093C467.956 131.45 470.612 125.098 479.024 118.256C486.107 112.148 490.534 110.926 494.297 110.926C499.389 110.926 502.488 119.722 500.274 119.722C498.061 119.722 497.397 114.836 494.962 114.836C492.748 114.836 488.321 116.79 482.123 121.433C476.367 125.586 471.94 132.672 471.94 134.627C471.94 135.115 472.161 135.36 472.826 135.36C474.818 135.36 478.581 133.649 484.779 130.229C493.191 125.831 498.725 122.41 501.381 122.41C502.266 122.41 504.259 122.899 504.259 124.609C504.259 126.564 502.045 130.962 502.045 136.581C502.045 140.735 506.03 143.911 511.785 143.911ZM597.673 81.3624C589.482 86.7377 585.941 93.3346 587.269 99.4429C588.376 104.33 592.139 113.37 595.459 124.365C604.314 116.546 612.504 110.682 620.916 106.529C621.58 106.04 624.236 105.551 625.121 105.796C626.892 106.529 624.679 107.506 623.351 108.239C616.046 111.415 606.748 119.234 596.787 129.007C599.444 138.78 601.657 149.531 601.657 160.77C601.657 186.669 581.956 202.306 569.117 202.306C550.966 202.306 550.08 173.231 579.743 140.491C583.948 135.848 587.933 131.695 591.696 128.03C588.818 118.501 585.277 109.461 583.727 102.375C580.407 88.9367 588.376 78.4304 595.016 77.6974C600.108 76.9644 599.886 80.1407 597.673 81.3624ZM597.673 157.594C597.673 149.531 595.68 140.979 593.245 132.672L583.727 142.934C556.942 172.742 557.385 198.153 566.904 198.153C581.071 198.153 597.673 180.072 597.673 157.594ZM631.762 205.971C628.885 206.704 626.892 196.931 627.114 178.851C627.556 163.946 630.877 112.637 637.518 73.2994C639.067 64.2592 640.617 56.1962 642.166 48.8663C599.001 48.8663 595.016 49.1106 594.131 45.4456C593.688 43.2467 599.886 40.3147 601.657 41.5364C603.871 43.0023 605.42 43.7353 611.84 43.7353L643.273 43.9797C650.356 12.7052 656.997 0 660.096 0C661.867 0 663.195 5.86395 662.753 8.06294C662.089 10.9949 661.203 6.84128 658.768 12.7052C658.326 13.4382 653.677 26.8765 649.471 43.9797C657.219 43.9797 660.096 44.7127 682.011 44.7127C702.376 44.7127 707.689 43.491 708.353 46.1786C708.796 49.1106 697.949 48.8663 681.347 48.8663H648.143C646.151 57.6622 644.158 66.9468 642.83 75.9871C640.838 87.9593 637.518 109.216 634.64 134.871C632.869 148.798 630.655 183.493 631.984 195.221C633.09 204.505 634.861 205.483 631.762 205.971ZM671.164 145.622C659.654 146.599 654.562 135.848 659.211 124.609C663.638 113.37 672.492 108.972 677.141 109.949C681.347 110.682 682.675 114.591 680.904 120.211C678.248 127.785 670.058 133.161 662.089 136.093C662.974 139.513 665.852 141.224 669.836 140.979C680.019 140.002 694.186 132.183 734.252 112.881C737.13 111.415 737.794 114.591 736.023 115.324C702.376 131.695 683.339 144.644 671.164 145.622ZM663.195 126.319C662.089 129.007 661.646 131.206 661.646 133.161C668.065 130.717 675.813 123.876 677.584 118.501C678.248 116.302 678.027 114.103 676.477 113.614C674.042 112.881 666.958 116.057 663.195 126.319ZM742.885 150.264C738.015 149.531 734.695 143.911 740.007 131.695C742.221 126.319 743.771 123.143 743.771 121.921C743.771 120.944 743.106 120.211 738.458 118.256C732.481 115.813 731.596 109.46 732.702 104.574C734.695 95.7779 741.114 93.0903 744.435 93.8233C746.206 94.3119 748.64 96.9996 748.419 98.9542C747.755 105.307 744.213 109.46 738.237 113.125C738.679 113.614 739.343 114.103 740.229 114.347C748.419 118.012 749.526 118.745 749.526 120.944C749.526 122.899 747.091 126.808 744.213 133.649C740.893 141.224 740.671 144.4 744.435 144.889C756.831 146.599 788.485 135.604 811.728 113.614C813.942 111.415 816.598 113.125 814.606 115.08C791.142 139.758 754.174 151.974 742.885 150.264ZM737.13 105.796C736.687 107.261 736.466 108.728 736.908 110.193C743.328 105.796 744.877 102.131 745.099 98.7099C745.099 98.2212 745.099 97.9769 744.656 97.7326C742.442 96.9996 738.237 101.886 737.13 105.796ZM881.457 111.904C882.563 111.904 883.449 114.347 882.342 114.836C879.686 115.569 869.06 122.166 843.604 131.695C823.46 139.269 818.369 140.491 814.827 140.491C809.072 140.491 807.301 136.093 807.301 132.183C807.301 128.518 808.186 122.166 809.515 118.012C810.4 114.591 811.507 112.637 815.27 111.904C816.377 111.659 817.705 113.125 816.377 115.813C813.056 123.387 812.392 128.03 811.949 131.939C811.728 134.871 812.835 136.337 813.942 136.337C816.819 136.337 823.018 135.604 841.833 128.274C863.526 119.722 880.128 111.904 881.457 111.904ZM819.697 94.5563C818.59 94.0676 817.705 89.914 818.148 88.2037C818.59 86.7377 820.361 84.05 821.689 84.2944C823.682 84.783 825.01 87.715 824.567 89.914C823.903 92.113 821.025 94.8006 819.697 94.5563ZM865.297 132.672C867.068 128.518 869.282 124.853 871.274 121.921C870.167 120.7 869.06 119.478 868.396 117.768C864.412 108.483 871.717 97.4882 881.457 97.4882C891.196 97.4882 897.173 107.506 897.173 122.899V123.632C898.059 123.632 898.944 123.632 900.051 123.387C911.119 122.41 931.705 116.546 941.002 112.881C942.552 112.148 943.659 114.836 942.552 115.324C937.682 117.523 912.447 126.564 899.387 127.785C898.501 128.03 897.616 128.03 896.952 128.03C894.96 151.485 879.243 170.543 869.06 170.543C859.099 170.543 856.443 151.73 865.297 132.672ZM868.175 166.145C878.136 166.145 890.09 149.531 892.082 128.03C886.105 128.03 879.686 127.052 875.037 124.609C873.266 127.297 871.274 130.473 869.725 133.649C861.313 151.73 863.969 166.145 868.175 166.145ZM883.006 113.858C883.006 114.347 880.571 116.79 877.694 120.7C881.678 122.654 886.991 123.632 892.525 123.632V121.188C892.525 108.483 886.991 101.642 880.793 101.642C874.816 101.642 869.282 107.994 872.381 115.324C872.824 116.546 873.488 117.279 874.152 118.256C877.472 114.347 880.35 112.148 881.014 112.148C882.342 112.148 883.006 112.881 883.006 113.858Z"
        fill="#192227" />
</svg>
    