<svg width="973" height="449" viewBox="0 0 973 449" fill="none" xmlns="http://www.w3.org/2000/svg">
    <g clip-path="url(#clip0_682_176)">
    <path d="M92.2132 172.66C84.4404 172.66 61.1221 190.351 36.0373 237.054C29.6778 258.637 23.6716 277.743 19.7852 288.711C10.9525 314.185 7.41945 322.677 4.9463 322.677C2.82646 323.031 0.353307 320.908 0 318.431C0 316.662 5.29961 289.065 22.2584 251.914C25.0848 245.192 28.2646 238.823 31.4443 232.809C39.2171 206.626 45.2233 176.906 51.5828 140.11C52.2895 135.156 59.0023 137.279 58.2957 142.586C55.1159 163.815 49.463 189.29 42.7502 213.349C61.4754 184.336 80.2007 167.353 92.9198 167.353C97.5128 167.353 104.579 173.722 104.579 186.459C104.579 188.228 104.226 189.997 104.226 191.766C129.664 179.383 158.635 167.707 180.54 161.692C184.78 160.631 189.019 164.169 184.426 165.23C162.521 171.245 129.664 185.044 102.459 199.196C99.6326 208.749 93.9797 218.302 87.2669 225.379C67.835 244.838 47.6965 242.715 47.6965 233.162C47.6965 224.671 67.835 210.518 94.333 196.72C95.3929 192.474 96.0995 188.582 96.4529 184.69C96.8062 177.26 95.0396 172.66 92.2132 172.66ZM80.554 220.071C85.147 215.826 88.6801 210.518 91.1532 204.857C70.6614 215.826 55.8225 226.086 55.8225 231.04C55.8225 234.578 63.9486 236.347 80.554 220.071ZM193.612 217.595C185.84 216.533 180.54 208.396 189.019 190.705C192.552 182.921 195.026 178.321 195.026 176.552C195.026 175.137 193.966 174.076 186.546 171.245C177.007 167.707 175.594 158.508 177.36 151.432C180.54 138.694 190.786 134.803 196.085 135.864C198.912 136.572 202.798 140.464 202.445 143.294C201.385 152.493 195.732 158.508 186.193 163.815C186.899 164.523 187.959 165.23 189.373 165.584C202.445 170.891 204.212 171.953 204.212 175.137C204.212 177.968 200.325 183.629 195.732 193.535C190.433 204.504 190.079 209.103 196.085 209.811C215.871 212.287 266.394 196.366 303.491 164.523C307.024 161.339 311.264 163.815 308.084 166.646C270.633 202.381 211.631 220.071 193.612 217.595ZM184.426 153.201C183.72 155.324 183.366 157.447 184.073 159.569C194.319 153.201 196.792 147.894 197.145 142.94C197.145 142.233 197.145 141.879 196.439 141.525C192.906 140.464 186.193 147.54 184.426 153.201ZM282.292 192.12C285.119 186.105 288.652 180.798 291.832 176.552C290.065 174.783 288.299 173.014 287.239 170.538C280.879 157.093 292.538 141.171 308.084 141.171C323.629 141.171 333.169 155.677 333.169 177.968V179.029C334.582 179.029 335.995 179.029 337.762 178.675C355.427 177.26 388.285 168.769 403.123 163.461C405.597 162.4 407.363 166.292 405.597 166.999C397.824 170.184 357.547 183.275 336.702 185.044C335.288 185.398 333.875 185.398 332.815 185.398C329.636 219.364 304.551 246.961 288.299 246.961C272.4 246.961 268.16 219.718 282.292 192.12ZM286.885 240.592C302.784 240.592 321.863 216.533 325.043 185.398C315.503 185.398 305.257 183.982 297.838 180.444C295.011 184.336 291.832 188.936 289.359 193.535C275.933 219.718 280.173 240.592 286.885 240.592ZM310.557 164.877C310.557 165.584 306.671 169.122 302.078 174.783C308.437 177.614 316.917 179.029 325.749 179.029V175.491C325.749 157.093 316.917 147.186 307.024 147.186C297.485 147.186 288.652 156.385 293.598 166.999C294.305 168.769 295.365 169.83 296.425 171.245C301.724 165.584 306.317 162.4 307.377 162.4C309.497 162.4 310.557 163.461 310.557 164.877ZM459.653 169.83C453.646 169.83 445.167 178.675 433.155 191.766C420.789 205.211 408.423 217.595 400.297 217.595C395.351 217.595 391.111 212.995 393.231 204.857C395.704 196.012 398.884 184.69 401.357 177.26C404.183 168.061 402.417 164.169 405.95 163.461C409.483 163.108 410.896 165.938 410.896 166.999C410.896 169.83 409.836 172.66 406.657 180.798C404.183 187.874 400.65 198.489 399.944 201.319C398.53 207.334 398.884 209.457 401.357 209.457C405.597 209.457 417.962 200.612 428.915 188.228C446.58 169.122 452.586 160.631 461.066 160.631C469.899 160.631 471.665 175.845 472.018 186.813C499.576 170.538 525.721 161.338 532.434 161.338C537.733 161.338 539.147 167.353 534.2 167.353C527.134 167.353 500.283 176.552 472.018 194.597C471.312 226.794 459.299 276.681 443.047 305.694C426.795 334.353 405.243 353.812 386.518 353.812C376.979 353.812 364.26 347.444 364.26 329.399C364.26 303.217 385.105 263.59 426.088 221.84C437.748 209.811 451.527 199.55 465.306 191.059C464.952 178.675 464.246 169.83 459.653 169.83ZM436.688 300.741C453.293 271.728 464.599 222.902 465.306 198.843C453.293 206.626 441.634 215.826 431.035 226.794C388.285 269.959 371.326 310.294 371.326 330.461C371.326 340.721 375.565 347.09 383.692 347.09C396.764 347.09 418.669 332.584 436.688 300.741ZM554.692 210.872C536.32 212.287 528.194 196.72 535.614 180.444C542.68 164.169 556.812 157.8 564.232 159.216C570.944 160.277 573.064 165.938 570.238 174.076C565.998 185.044 552.926 192.828 540.207 197.074C541.62 202.027 546.213 204.504 552.572 204.15C568.825 202.735 591.436 191.413 655.385 163.461C659.978 161.338 661.038 165.938 658.211 166.999C604.508 190.705 574.124 209.457 554.692 210.872ZM541.973 182.921C540.207 186.813 539.5 189.997 539.5 192.828C549.746 189.29 562.112 179.383 564.938 171.599C565.998 168.415 565.645 165.23 563.172 164.523C559.285 163.461 547.979 168.061 541.973 182.921ZM624.294 199.55C623.234 191.413 628.887 180.444 641.606 169.83C652.912 160.277 661.744 158.508 667.75 158.508C675.877 158.508 675.17 167.353 671.637 165.938C667.044 164.169 658.211 165.584 646.905 174.076C635.6 182.567 631.36 191.059 631.713 197.074C632.066 204.504 643.019 207.688 654.678 206.273C680.823 203.442 738.412 176.906 763.497 163.461C765.263 162.4 772.683 162.754 767.03 166.646C740.532 183.629 680.823 208.396 656.798 211.934C640.193 214.41 626.06 211.58 624.294 199.55ZM749.364 298.264C744.771 299.325 741.592 285.173 741.945 258.991C742.652 237.408 747.951 163.108 758.55 106.144C761.024 93.0527 763.497 81.3769 765.97 70.7625C697.075 70.7625 690.716 71.1163 689.302 65.8091C688.596 62.6248 698.488 58.3791 701.315 60.1481C704.848 62.271 707.321 63.3324 717.567 63.3324L767.736 63.6862C779.042 18.3983 789.641 0 794.588 0C797.414 0 799.534 8.4915 798.828 11.6758C797.768 15.9216 796.354 9.90675 792.468 18.3982C791.761 19.4597 784.342 38.9194 777.629 63.6862C789.995 63.6862 794.588 64.7477 829.565 64.7477C862.069 64.7477 870.549 62.9786 871.609 66.8706C872.315 71.1163 855.003 70.7625 828.505 70.7625H775.509C772.329 83.4997 769.15 96.9446 767.03 110.036C763.85 127.372 758.55 158.154 753.957 195.304C751.131 215.472 747.598 265.713 749.718 282.696C751.484 296.141 754.311 297.556 749.364 298.264ZM789.641 192.12C792.468 186.105 796.001 180.798 799.181 176.552C797.414 174.783 795.648 173.014 794.588 170.538C788.228 157.093 799.887 141.171 815.433 141.171C830.978 141.171 840.518 155.677 840.518 177.968V179.029C841.931 179.029 843.344 179.029 845.111 178.675C862.776 177.26 895.634 168.769 910.473 163.461C912.946 162.4 914.712 166.292 912.946 166.999C905.173 170.184 864.896 183.275 844.051 185.044C842.638 185.398 841.224 185.398 840.164 185.398C836.985 219.364 811.9 246.961 795.648 246.961C779.749 246.961 775.509 219.718 789.641 192.12ZM794.234 240.592C810.133 240.592 829.212 216.533 832.392 185.398C822.852 185.398 812.607 183.982 805.187 180.444C802.361 184.336 799.181 188.936 796.708 193.535C783.282 219.718 787.522 240.592 794.234 240.592ZM817.906 164.877C817.906 165.584 814.02 169.122 809.427 174.783C815.786 177.614 824.266 179.029 833.098 179.029V175.491C833.098 157.093 824.266 147.186 814.373 147.186C804.834 147.186 796.001 156.385 800.947 166.999C801.654 168.769 802.714 169.83 803.774 171.245C809.073 165.584 813.666 162.4 814.726 162.4C816.846 162.4 817.906 163.461 817.906 164.877ZM928.138 117.82C915.066 125.603 909.413 135.156 911.532 144.002C913.299 151.078 919.305 164.169 924.605 180.091C938.737 168.769 951.809 160.277 965.235 154.262C966.295 153.555 970.535 152.847 971.948 153.201C974.774 154.262 971.241 155.677 969.122 156.739C957.462 161.338 942.623 172.66 926.725 186.813C930.964 200.965 934.497 216.533 934.497 232.809C934.497 270.313 903.053 292.957 882.561 292.957C853.59 292.957 852.177 250.853 899.52 203.442C906.233 196.72 912.592 190.705 918.599 185.398C914.006 171.599 908.353 158.508 905.88 148.247C900.58 128.788 913.299 113.574 923.898 112.512C932.024 111.451 931.671 116.05 928.138 117.82ZM928.138 228.209C928.138 216.533 924.958 204.15 921.072 192.12L905.88 206.98C863.129 250.145 863.836 286.942 879.028 286.942C901.64 286.942 928.138 260.76 928.138 228.209Z" fill="#0D0D0D"/>
    </g>
    <defs>
    <clipPath id="clip0_682_176">
    <rect width="973" height="449" fill="white"/>
    </clipPath>
    </defs>
    </svg>
    