<svg width="755" height="45" viewBox="0 0 755 45" fill="#234c73" xmlns="http://www.w3.org/2000/svg">
    <path
        d="M9.60178 13.2034C13.9206 13.2034 18.5241 15.0369 18.5241 20.4324C18.5241 21.6896 17.7647 22.2659 16.9579 22.2659C16.1511 22.2659 15.2969 21.6373 15.2969 20.4324C15.2969 20.0134 15.0596 16.6084 9.60178 16.6084C5.28301 16.6084 3.38464 18.4942 3.38464 22.9992V35.6238C3.38464 40.1812 5.71014 41.5956 9.60178 41.5956C13.5409 41.5956 15.724 39.8145 15.724 35.5714C15.724 34.3666 16.5308 33.7904 17.2902 33.7904C18.097 33.7904 18.8563 34.3666 18.8563 35.5714C18.8563 42.6433 15.2969 45.0005 9.60178 45.0005C3.4321 45.0005 0.299805 42.4861 0.299805 35.6238V22.9992C0.299805 15.5607 3.6694 13.2034 9.60178 13.2034ZM39.5046 35.6762V43.1671C39.5046 44.3195 38.6978 44.8434 37.9384 44.8434C37.1316 44.8434 36.3723 44.3195 36.3723 43.1671V15.0369C36.3723 13.9892 36.8943 13.3082 37.9384 13.3082H44.3454C46.1488 13.3082 51.8439 13.8844 51.8439 20.9563V27.5043C51.8439 31.4855 50.5151 33.9999 47.4777 35.1L50.7049 42.2766C51.3693 43.6909 50.3727 44.8434 49.3286 44.8434C48.7591 44.8434 48.0472 44.4243 47.6675 43.5338L44.203 35.6762H39.5046ZM48.7116 27.5043V20.9563C48.7116 19.699 48.2845 16.8179 44.3454 16.8179H39.5046V32.1665H43.9183C46.2437 32.1665 48.7116 31.5902 48.7116 27.5043ZM69.5023 43.0099V15.1416C69.5023 13.9368 70.3565 13.3082 71.1633 13.3082H82.0789C83.123 13.3082 83.6451 14.1463 83.6451 15.0369C83.6451 15.9274 83.123 16.8179 82.0789 16.8179H72.682V26.9804H80.1331C81.2246 26.9804 81.7467 27.8186 81.7467 28.7091C81.7467 29.5996 81.1772 30.5425 80.1331 30.5425H72.682V41.386H82.0789C83.0756 41.386 83.5976 42.2766 83.5976 43.1147C83.5976 44.0052 83.0756 44.8434 82.0789 44.8434H71.1633C70.3565 44.8434 69.5023 44.5291 69.5023 43.0099ZM114.687 43.429L112.836 36.7762H104.009L102.253 43.3242C101.636 45.5768 98.5033 44.8958 99.1677 42.5909C101.636 33.4237 104.056 24.0993 106.476 14.8273C106.761 13.832 107.521 13.3082 108.28 13.3082C108.992 13.3082 109.751 13.832 110.036 14.8273L117.582 42.5909C118.104 44.5815 115.304 45.6815 114.687 43.429ZM108.375 20.38L104.958 33.2665H111.934C110.748 28.8663 109.656 25.0946 108.375 20.38ZM133.484 13.3082H147.817C148.813 13.3082 149.288 14.1987 149.288 15.0893C149.288 15.9798 148.813 16.8179 147.817 16.8179H142.407V43.1671C142.407 44.2672 141.6 44.8434 140.793 44.8434C139.986 44.8434 139.227 44.2672 139.227 43.1671V16.8179H133.484C132.488 16.8179 132.013 15.9798 132.013 15.0893C132.013 14.1987 132.488 13.3082 133.484 13.3082ZM165.57 43.2195V14.9845C165.57 13.8844 166.329 13.3082 167.089 13.3082C167.848 13.3082 168.655 13.8844 168.655 14.9845V43.2195C168.655 45.472 165.57 45.472 165.57 43.2195ZM188.117 14.4606L194.334 38.0858L200.836 14.5654C201.453 12.3129 204.348 13.2034 203.778 15.4036L196.185 43.3766C195.947 44.3195 195.188 44.8434 194.381 44.8434C193.575 44.8434 192.72 44.3195 192.483 43.3766L185.222 15.4559C184.605 13.0987 187.595 12.4177 188.117 14.4606ZM220.345 43.2195V14.9845C220.345 13.8844 221.104 13.3082 221.864 13.3082C222.623 13.3082 223.43 13.8844 223.43 14.9845V43.2195C223.43 45.472 220.345 45.472 220.345 43.2195ZM241.563 43.2195V15.0369C241.563 13.6225 242.464 13.3082 243.129 13.3082H250.722C256.987 13.3082 260.072 16.6084 260.072 23.104V36.5143C260.072 40.6003 257.177 44.8958 250.865 44.8958H243.129C242.464 44.8958 241.563 44.4767 241.563 43.2195ZM256.939 36.5143V23.104C256.939 18.8085 254.851 16.8179 250.722 16.8179H244.695V41.4908H250.865C253.76 41.4908 256.939 39.7621 256.939 36.5143ZM291.588 43.429L289.737 36.7762H280.91L279.154 43.3242C278.537 45.5768 275.405 44.8958 276.069 42.5909C278.537 33.4237 280.957 24.0993 283.378 14.8273C283.663 13.832 284.422 13.3082 285.181 13.3082C285.893 13.3082 286.652 13.832 286.937 14.8273L294.483 42.5909C295.005 44.5815 292.205 45.6815 291.588 43.429ZM285.276 20.38L281.859 33.2665H288.836C287.649 28.8663 286.558 25.0946 285.276 20.38ZM311.287 43.2195V15.0369C311.287 13.6225 312.189 13.3082 312.853 13.3082H320.447C326.711 13.3082 329.796 16.6084 329.796 23.104V36.5143C329.796 40.6003 326.901 44.8958 320.589 44.8958H312.853C312.189 44.8958 311.287 44.4767 311.287 43.2195ZM326.664 36.5143V23.104C326.664 18.8085 324.576 16.8179 320.447 16.8179H314.42V41.4908H320.589C323.484 41.4908 326.664 39.7621 326.664 36.5143ZM371.283 43.0099V15.1416C371.283 13.9368 372.137 13.3082 372.944 13.3082H383.859C384.903 13.3082 385.425 14.1463 385.425 15.0369C385.425 15.9274 384.903 16.8179 383.859 16.8179H374.462V26.9804H381.913C383.005 26.9804 383.527 27.8186 383.527 28.7091C383.527 29.5996 382.958 30.5425 381.913 30.5425H374.462V41.386H383.859C384.856 41.386 385.378 42.2766 385.378 43.1147C385.378 44.0052 384.856 44.8434 383.859 44.8434H372.944C372.137 44.8434 371.283 44.5291 371.283 43.0099ZM418.65 14.9845V43.1671C418.65 44.2672 417.891 44.8434 417.132 44.8434C416.562 44.8434 415.803 44.3719 415.471 43.6909C411.911 35.9905 409.253 30.0711 405.694 22.3183V43.1671C405.694 44.2672 404.935 44.8434 404.128 44.8434C403.369 44.8434 402.562 44.2672 402.562 43.1671V14.9845C402.562 13.151 404.935 13.0463 405.457 14.1463L415.471 35.9905V14.9845C415.471 13.8844 416.23 13.3082 417.037 13.3082C417.844 13.3082 418.65 13.8844 418.65 14.9845ZM469.581 13.2034C473.9 13.2034 478.503 15.0369 478.503 20.4324C478.503 21.6896 477.744 22.2659 476.937 22.2659C476.13 22.2659 475.276 21.6373 475.276 20.4324C475.276 20.0134 475.039 16.6084 469.581 16.6084C465.262 16.6084 463.364 18.4942 463.364 22.9992V35.6238C463.364 40.1812 465.689 41.5956 469.581 41.5956C473.52 41.5956 475.703 39.8145 475.703 35.5714C475.703 34.3666 476.51 33.7904 477.269 33.7904C478.076 33.7904 478.836 34.3666 478.836 35.5714C478.836 42.6433 475.276 45.0005 469.581 45.0005C463.411 45.0005 460.279 42.4861 460.279 35.6238V22.9992C460.279 15.5607 463.649 13.2034 469.581 13.2034ZM510.21 43.429L508.359 36.7762H499.531L497.775 43.3242C497.158 45.5768 494.026 44.8958 494.69 42.5909C497.158 33.4237 499.579 24.0993 501.999 14.8273C502.284 13.832 503.043 13.3082 503.803 13.3082C504.514 13.3082 505.274 13.832 505.559 14.8273L513.105 42.5909C513.627 44.5815 510.827 45.6815 510.21 43.429ZM503.898 20.38L500.48 33.2665H507.457C506.27 28.8663 505.179 25.0946 503.898 20.38ZM529.909 43.2195V15.0369C529.909 13.6225 530.81 13.3082 531.475 13.3082H539.068C545.333 13.3082 548.418 16.6084 548.418 23.104V36.5143C548.418 40.6003 545.523 44.8958 539.211 44.8958H531.475C530.81 44.8958 529.909 44.4767 529.909 43.2195ZM545.285 36.5143V23.104C545.285 18.8085 543.197 16.8179 539.068 16.8179H533.041V41.4908H539.211C542.106 41.4908 545.285 39.7621 545.285 36.5143ZM579.934 43.429L578.083 36.7762H569.256L567.5 43.3242C566.883 45.5768 563.751 44.8958 564.415 42.5909C566.883 33.4237 569.303 24.0993 571.724 14.8273C572.008 13.832 572.768 13.3082 573.527 13.3082C574.239 13.3082 574.998 13.832 575.283 14.8273L582.829 42.5909C583.351 44.5815 580.551 45.6815 579.934 43.429ZM573.622 20.38L570.205 33.2665H577.181C575.995 28.8663 574.903 25.0946 573.622 20.38ZM639.075 20.9563V27.5043C639.075 33.738 636.133 35.7286 631.149 35.7286H626.736V43.1671C626.736 44.2672 625.929 44.8434 625.17 44.8434C624.363 44.8434 623.604 44.2672 623.604 43.1671V15.0369C623.604 14.0416 624.363 13.3082 625.17 13.3082H631.577C634.187 13.3082 639.075 13.8844 639.075 20.9563ZM631.577 16.8179H626.736V32.1665H631.149C633.475 32.1665 635.99 31.5378 635.943 27.4519L635.895 20.9563C635.895 19.699 635.706 16.8179 631.577 16.8179ZM655.12 43.2195V14.9845C655.12 13.8844 655.879 13.3082 656.639 13.3082C657.398 13.3082 658.205 13.8844 658.205 14.9845V43.2195C658.205 45.472 655.12 45.472 655.12 43.2195ZM655.879 4.03622L656.449 2.25516C657.208 -0.102118 660.245 0.78841 659.391 3.35523L658.869 4.97913C658.157 7.33641 655.167 6.23635 655.879 4.03622ZM689.436 43.7433L683.741 31.5378L677.999 43.5862C676.67 46.3625 674.107 44.3719 675.056 42.329L681.89 27.7662L676.338 15.9798C675.246 13.6225 678.283 12.3129 679.185 14.2511L683.741 23.785L688.202 14.3559C689.247 12.1034 692.047 13.6225 691.05 15.7179L685.497 27.6614L692.379 42.4337C693.375 44.5815 690.575 46.1006 689.436 43.7433ZM709.278 43.0099V15.1416C709.278 13.9368 710.132 13.3082 710.939 13.3082H721.854C722.899 13.3082 723.421 14.1463 723.421 15.0369C723.421 15.9274 722.899 16.8179 721.854 16.8179H712.458V26.9804H719.909C721 26.9804 721.522 27.8186 721.522 28.7091C721.522 29.5996 720.953 30.5425 719.909 30.5425H712.458V41.386H721.854C722.851 41.386 723.373 42.2766 723.373 43.1147C723.373 44.0052 722.851 44.8434 721.854 44.8434H710.939C710.132 44.8434 709.278 44.5291 709.278 43.0099ZM740.557 43.1671V14.9845C740.557 13.8844 741.316 13.3082 742.076 13.3082C742.835 13.3082 743.642 13.8844 743.642 14.9845V41.3337H753.086C754.13 41.3337 754.7 42.2242 754.7 43.1147C754.7 44.0052 754.13 44.8434 753.086 44.8434H742.123C741.174 44.8434 740.557 44.0052 740.557 43.1671Z"
        fill="#234c73" />
    <path
        d="M9.60178 13.2034C13.9206 13.2034 18.5241 15.0369 18.5241 20.4324C18.5241 21.6896 17.7647 22.2659 16.9579 22.2659C16.1511 22.2659 15.2969 21.6373 15.2969 20.4324C15.2969 20.0134 15.0596 16.6084 9.60178 16.6084C5.28301 16.6084 3.38464 18.4942 3.38464 22.9992V35.6238C3.38464 40.1812 5.71014 41.5956 9.60178 41.5956C13.5409 41.5956 15.724 39.8145 15.724 35.5714C15.724 34.3666 16.5308 33.7904 17.2902 33.7904C18.097 33.7904 18.8563 34.3666 18.8563 35.5714C18.8563 42.6433 15.2969 45.0005 9.60178 45.0005C3.4321 45.0005 0.299805 42.4861 0.299805 35.6238V22.9992C0.299805 15.5607 3.6694 13.2034 9.60178 13.2034ZM39.5046 35.6762V43.1671C39.5046 44.3195 38.6978 44.8434 37.9384 44.8434C37.1316 44.8434 36.3723 44.3195 36.3723 43.1671V15.0369C36.3723 13.9892 36.8943 13.3082 37.9384 13.3082H44.3454C46.1488 13.3082 51.8439 13.8844 51.8439 20.9563V27.5043C51.8439 31.4855 50.5151 33.9999 47.4777 35.1L50.7049 42.2766C51.3693 43.6909 50.3727 44.8434 49.3286 44.8434C48.7591 44.8434 48.0472 44.4243 47.6675 43.5338L44.203 35.6762H39.5046ZM48.7116 27.5043V20.9563C48.7116 19.699 48.2845 16.8179 44.3454 16.8179H39.5046V32.1665H43.9183C46.2437 32.1665 48.7116 31.5902 48.7116 27.5043ZM69.5023 43.0099V15.1416C69.5023 13.9368 70.3565 13.3082 71.1633 13.3082H82.0789C83.123 13.3082 83.6451 14.1463 83.6451 15.0369C83.6451 15.9274 83.123 16.8179 82.0789 16.8179H72.682V26.9804H80.1331C81.2246 26.9804 81.7467 27.8186 81.7467 28.7091C81.7467 29.5996 81.1772 30.5425 80.1331 30.5425H72.682V41.386H82.0789C83.0756 41.386 83.5976 42.2766 83.5976 43.1147C83.5976 44.0052 83.0756 44.8434 82.0789 44.8434H71.1633C70.3565 44.8434 69.5023 44.5291 69.5023 43.0099ZM114.687 43.429L112.836 36.7762H104.009L102.253 43.3242C101.636 45.5768 98.5033 44.8958 99.1677 42.5909C101.636 33.4237 104.056 24.0993 106.476 14.8273C106.761 13.832 107.521 13.3082 108.28 13.3082C108.992 13.3082 109.751 13.832 110.036 14.8273L117.582 42.5909C118.104 44.5815 115.304 45.6815 114.687 43.429ZM108.375 20.38L104.958 33.2665H111.934C110.748 28.8663 109.656 25.0946 108.375 20.38ZM133.484 13.3082H147.817C148.813 13.3082 149.288 14.1987 149.288 15.0893C149.288 15.9798 148.813 16.8179 147.817 16.8179H142.407V43.1671C142.407 44.2672 141.6 44.8434 140.793 44.8434C139.986 44.8434 139.227 44.2672 139.227 43.1671V16.8179H133.484C132.488 16.8179 132.013 15.9798 132.013 15.0893C132.013 14.1987 132.488 13.3082 133.484 13.3082ZM165.57 43.2195V14.9845C165.57 13.8844 166.329 13.3082 167.089 13.3082C167.848 13.3082 168.655 13.8844 168.655 14.9845V43.2195C168.655 45.472 165.57 45.472 165.57 43.2195ZM188.117 14.4606L194.334 38.0858L200.836 14.5654C201.453 12.3129 204.348 13.2034 203.778 15.4036L196.185 43.3766C195.947 44.3195 195.188 44.8434 194.381 44.8434C193.575 44.8434 192.72 44.3195 192.483 43.3766L185.222 15.4559C184.605 13.0987 187.595 12.4177 188.117 14.4606ZM220.345 43.2195V14.9845C220.345 13.8844 221.104 13.3082 221.864 13.3082C222.623 13.3082 223.43 13.8844 223.43 14.9845V43.2195C223.43 45.472 220.345 45.472 220.345 43.2195ZM241.563 43.2195V15.0369C241.563 13.6225 242.464 13.3082 243.129 13.3082H250.722C256.987 13.3082 260.072 16.6084 260.072 23.104V36.5143C260.072 40.6003 257.177 44.8958 250.865 44.8958H243.129C242.464 44.8958 241.563 44.4767 241.563 43.2195ZM256.939 36.5143V23.104C256.939 18.8085 254.851 16.8179 250.722 16.8179H244.695V41.4908H250.865C253.76 41.4908 256.939 39.7621 256.939 36.5143ZM291.588 43.429L289.737 36.7762H280.91L279.154 43.3242C278.537 45.5768 275.405 44.8958 276.069 42.5909C278.537 33.4237 280.957 24.0993 283.378 14.8273C283.663 13.832 284.422 13.3082 285.181 13.3082C285.893 13.3082 286.652 13.832 286.937 14.8273L294.483 42.5909C295.005 44.5815 292.205 45.6815 291.588 43.429ZM285.276 20.38L281.859 33.2665H288.836C287.649 28.8663 286.558 25.0946 285.276 20.38ZM311.287 43.2195V15.0369C311.287 13.6225 312.189 13.3082 312.853 13.3082H320.447C326.711 13.3082 329.796 16.6084 329.796 23.104V36.5143C329.796 40.6003 326.901 44.8958 320.589 44.8958H312.853C312.189 44.8958 311.287 44.4767 311.287 43.2195ZM326.664 36.5143V23.104C326.664 18.8085 324.576 16.8179 320.447 16.8179H314.42V41.4908H320.589C323.484 41.4908 326.664 39.7621 326.664 36.5143ZM371.283 43.0099V15.1416C371.283 13.9368 372.137 13.3082 372.944 13.3082H383.859C384.903 13.3082 385.425 14.1463 385.425 15.0369C385.425 15.9274 384.903 16.8179 383.859 16.8179H374.462V26.9804H381.913C383.005 26.9804 383.527 27.8186 383.527 28.7091C383.527 29.5996 382.958 30.5425 381.913 30.5425H374.462V41.386H383.859C384.856 41.386 385.378 42.2766 385.378 43.1147C385.378 44.0052 384.856 44.8434 383.859 44.8434H372.944C372.137 44.8434 371.283 44.5291 371.283 43.0099ZM418.65 14.9845V43.1671C418.65 44.2672 417.891 44.8434 417.132 44.8434C416.562 44.8434 415.803 44.3719 415.471 43.6909C411.911 35.9905 409.253 30.0711 405.694 22.3183V43.1671C405.694 44.2672 404.935 44.8434 404.128 44.8434C403.369 44.8434 402.562 44.2672 402.562 43.1671V14.9845C402.562 13.151 404.935 13.0463 405.457 14.1463L415.471 35.9905V14.9845C415.471 13.8844 416.23 13.3082 417.037 13.3082C417.844 13.3082 418.65 13.8844 418.65 14.9845ZM469.581 13.2034C473.9 13.2034 478.503 15.0369 478.503 20.4324C478.503 21.6896 477.744 22.2659 476.937 22.2659C476.13 22.2659 475.276 21.6373 475.276 20.4324C475.276 20.0134 475.039 16.6084 469.581 16.6084C465.262 16.6084 463.364 18.4942 463.364 22.9992V35.6238C463.364 40.1812 465.689 41.5956 469.581 41.5956C473.52 41.5956 475.703 39.8145 475.703 35.5714C475.703 34.3666 476.51 33.7904 477.269 33.7904C478.076 33.7904 478.836 34.3666 478.836 35.5714C478.836 42.6433 475.276 45.0005 469.581 45.0005C463.411 45.0005 460.279 42.4861 460.279 35.6238V22.9992C460.279 15.5607 463.649 13.2034 469.581 13.2034ZM510.21 43.429L508.359 36.7762H499.531L497.775 43.3242C497.158 45.5768 494.026 44.8958 494.69 42.5909C497.158 33.4237 499.579 24.0993 501.999 14.8273C502.284 13.832 503.043 13.3082 503.803 13.3082C504.514 13.3082 505.274 13.832 505.559 14.8273L513.105 42.5909C513.627 44.5815 510.827 45.6815 510.21 43.429ZM503.898 20.38L500.48 33.2665H507.457C506.27 28.8663 505.179 25.0946 503.898 20.38ZM529.909 43.2195V15.0369C529.909 13.6225 530.81 13.3082 531.475 13.3082H539.068C545.333 13.3082 548.418 16.6084 548.418 23.104V36.5143C548.418 40.6003 545.523 44.8958 539.211 44.8958H531.475C530.81 44.8958 529.909 44.4767 529.909 43.2195ZM545.285 36.5143V23.104C545.285 18.8085 543.197 16.8179 539.068 16.8179H533.041V41.4908H539.211C542.106 41.4908 545.285 39.7621 545.285 36.5143ZM579.934 43.429L578.083 36.7762H569.256L567.5 43.3242C566.883 45.5768 563.751 44.8958 564.415 42.5909C566.883 33.4237 569.303 24.0993 571.724 14.8273C572.008 13.832 572.768 13.3082 573.527 13.3082C574.239 13.3082 574.998 13.832 575.283 14.8273L582.829 42.5909C583.351 44.5815 580.551 45.6815 579.934 43.429ZM573.622 20.38L570.205 33.2665H577.181C575.995 28.8663 574.903 25.0946 573.622 20.38ZM639.075 20.9563V27.5043C639.075 33.738 636.133 35.7286 631.149 35.7286H626.736V43.1671C626.736 44.2672 625.929 44.8434 625.17 44.8434C624.363 44.8434 623.604 44.2672 623.604 43.1671V15.0369C623.604 14.0416 624.363 13.3082 625.17 13.3082H631.577C634.187 13.3082 639.075 13.8844 639.075 20.9563ZM631.577 16.8179H626.736V32.1665H631.149C633.475 32.1665 635.99 31.5378 635.943 27.4519L635.895 20.9563C635.895 19.699 635.706 16.8179 631.577 16.8179ZM655.12 43.2195V14.9845C655.12 13.8844 655.879 13.3082 656.639 13.3082C657.398 13.3082 658.205 13.8844 658.205 14.9845V43.2195C658.205 45.472 655.12 45.472 655.12 43.2195ZM655.879 4.03622L656.449 2.25516C657.208 -0.102118 660.245 0.78841 659.391 3.35523L658.869 4.97913C658.157 7.33641 655.167 6.23635 655.879 4.03622ZM689.436 43.7433L683.741 31.5378L677.999 43.5862C676.67 46.3625 674.107 44.3719 675.056 42.329L681.89 27.7662L676.338 15.9798C675.246 13.6225 678.283 12.3129 679.185 14.2511L683.741 23.785L688.202 14.3559C689.247 12.1034 692.047 13.6225 691.05 15.7179L685.497 27.6614L692.379 42.4337C693.375 44.5815 690.575 46.1006 689.436 43.7433ZM709.278 43.0099V15.1416C709.278 13.9368 710.132 13.3082 710.939 13.3082H721.854C722.899 13.3082 723.421 14.1463 723.421 15.0369C723.421 15.9274 722.899 16.8179 721.854 16.8179H712.458V26.9804H719.909C721 26.9804 721.522 27.8186 721.522 28.7091C721.522 29.5996 720.953 30.5425 719.909 30.5425H712.458V41.386H721.854C722.851 41.386 723.373 42.2766 723.373 43.1147C723.373 44.0052 722.851 44.8434 721.854 44.8434H710.939C710.132 44.8434 709.278 44.5291 709.278 43.0099ZM740.557 43.1671V14.9845C740.557 13.8844 741.316 13.3082 742.076 13.3082C742.835 13.3082 743.642 13.8844 743.642 14.9845V41.3337H753.086C754.13 41.3337 754.7 42.2242 754.7 43.1147C754.7 44.0052 754.13 44.8434 753.086 44.8434H742.123C741.174 44.8434 740.557 44.0052 740.557 43.1671Z"
        fill="#234c73" />
</svg>
    