<svg width="153" height="165" viewBox="0 0 153 165" fill="none" xmlns="http://www.w3.org/2000/svg">
    <path d="M153 0.287109L139.061 148.511L76.4064 165L13.9239 148.534L0 0.287109H153Z" fill="#0094FF"/>
    <path d="M127.128 139.072L139.04 12.4082H76.5V152.396L127.128 139.072Z" fill="#00D8FF"/>
    <path d="M31.9202 67.3905L33.6369 85.5722H76.4998L84.7388 76.4814L76.4998 67.3905H31.9202ZM76.4998 30.5898H28.4707L30.2119 48.772H76.4998L84.7388 39.6807L76.4998 30.5898ZM76.4998 133.528L84.7388 123.886L76.4998 114.611L76.4159 114.632L55.084 109.164L53.7203 94.6635H34.4927L37.1762 123.212L76.4117 133.551L76.4998 133.528Z" fill="#EBEBEB"/>
    <path d="M100.02 85.5742L97.7963 109.155L76.4336 114.628V133.544L115.7 123.214L115.988 120.142L120.489 72.2748L120.957 67.3924L124.415 30.5918H76.4336V48.7739H103.424L101.681 67.3924H76.4336V85.5742H100.02Z" fill="white"/>
    </svg>
    