<svg width="74" height="104" viewBox="0 0 74 104" fill="none" xmlns="http://www.w3.org/2000/svg">
    <path d="M37.1289 51.9993C37.1289 42.4264 45.3827 34.666 55.5641 34.666C65.7456 34.666 73.9994 42.4266 73.9994 51.9993C73.9994 61.5724 65.7454 69.3325 55.5641 69.3325C45.3825 69.3325 37.1289 61.5722 37.1289 51.9993Z" fill="#DDDEDF"/>
    <path d="M0.259766 86.6652C0.259766 77.0923 8.51353 69.3319 18.695 69.3319L28.5194 64.4551L37.1302 69.3319V86.6652C37.1302 96.2382 28.8765 103.998 18.695 103.998C8.51353 103.998 0.259766 96.238 0.259766 86.6652Z" fill="#737373"/>
    <path d="M37.1302 0L27.0986 16.3861L37.1302 34.6665H55.3068C65.4885 34.6665 73.7421 26.9061 73.7421 17.3333C73.7421 7.76039 65.4883 0 55.3068 0H37.1302Z" fill="#737373"/>
    <path d="M0 17.3333C0 26.9061 8.25376 34.6665 18.4352 34.6665L28.2147 38.218L37.1291 34.6665V0H18.435C8.25376 0 0 7.76039 0 17.3333Z" fill="#DDDEDF"/>
    <path d="M0.259766 51.9995C0.259766 61.5726 8.51353 69.3328 18.695 69.3328H37.1302V34.666H18.695C8.51353 34.666 0.259766 42.4266 0.259766 51.9995Z" fill="#B4B4B4"/>
    </svg>
    