<svg width="153" height="166" viewBox="0 0 153 166" fill="none" xmlns="http://www.w3.org/2000/svg">
    <path d="M152.664 0.353516L138.756 148.82L76.2386 165.336L13.8934 148.844L0 0.353516H152.664Z" fill="#E44D26"/>
    <path d="M76.332 152.711L126.849 139.366L138.735 12.4941H76.332V152.711Z" fill="#F16529"/>
    <path d="M49.2952 48.9189H76.3319V30.707H28.4082L28.8657 35.593L33.563 85.7795H76.3319V67.568H51.0418L49.2952 48.9189Z" fill="#EBEBEB"/>
    <path d="M53.6024 94.8848H34.417L37.0946 123.48L76.2439 133.836L76.3319 133.813V114.865L76.2482 114.886L54.9631 109.409L53.6024 94.8848Z" fill="#EBEBEB"/>
    <path d="M76.2656 85.7798H99.7999L97.5815 109.399L76.2656 114.881V133.828L115.446 123.481L115.734 120.404L120.225 72.4587L120.691 67.5684H76.2656V85.7798Z" fill="white"/>
    <path d="M76.2656 48.8744V48.9189H122.43L122.813 44.8255L123.684 35.593L124.141 30.707H76.2656V48.8744Z" fill="white"/>
    </svg>
    