<svg width="202" height="189" viewBox="0 0 202 189" fill="none" xmlns="http://www.w3.org/2000/svg">
    <g clip-path="url(#clip0_700_67)">
    <path d="M0 0H202V189H0V0Z" fill="#F7DF1E"/>
    <path d="M53.1136 157.942L68.5721 149.189C71.5543 154.137 74.2672 158.323 80.7745 158.323C87.0121 158.323 90.9447 156.04 90.9447 147.16V86.7695H109.928V147.411C109.928 165.807 98.4026 174.18 81.5882 174.18C66.4026 174.18 57.5877 166.821 53.1133 157.941" fill="black"/>
    <path d="M120.238 156.039L135.695 147.666C139.764 153.883 145.052 158.45 154.407 158.45C162.273 158.45 167.289 154.77 167.289 149.696C167.289 143.606 162.136 141.449 153.458 137.898L148.714 135.993C135.018 130.539 125.932 123.688 125.932 109.225C125.932 95.9038 136.78 85.7539 153.73 85.7539C165.798 85.7539 174.476 89.6872 180.713 99.9637L165.933 108.844C162.678 103.389 159.154 101.233 153.73 101.233C148.171 101.233 144.645 104.531 144.645 108.844C144.645 114.173 148.171 116.33 156.306 119.629L161.051 121.532C177.187 128.002 186.272 134.599 186.272 149.442C186.272 165.428 172.848 174.181 154.815 174.181C137.187 174.181 125.797 166.316 120.238 156.039Z" fill="black"/>
    </g>
    <defs>
    <clipPath id="clip0_700_67">
    <rect width="202" height="189" fill="white"/>
    </clipPath>
    </defs>
    </svg>
    