<svg width="154" height="139" viewBox="0 0 154 139" fill="none" xmlns="http://www.w3.org/2000/svg">
    <path fill-rule="evenodd" clip-rule="evenodd" d="M36.8044 23.0411C35.3411 23.0368 33.8833 23.2067 32.4678 23.5464V23.7233H32.6777C33.6915 25.1232 34.8218 26.4495 36.0586 27.6903C36.9094 29.2367 37.6497 30.778 38.4949 32.3244C38.5999 32.2284 38.7049 32.1273 38.7049 32.1273C39.4896 31.5575 40.1039 30.8151 40.4903 29.9694C40.8767 29.1237 41.0227 28.2023 40.9146 27.2911C40.452 26.6385 40.0278 25.9638 39.644 25.2697C39.0087 24.3045 37.6331 23.8193 36.7879 23.0461" fill="#DDDEDF"/>
    <path fill-rule="evenodd" clip-rule="evenodd" d="M141.74 107.375C134.772 106.927 127.779 107.851 121.233 110.084C119.648 110.665 117.118 110.665 116.897 112.499C117.748 113.272 117.847 114.521 118.593 115.597C120.04 117.838 121.899 119.833 124.09 121.494C126.299 123.041 128.509 124.582 130.857 125.936C134.973 128.266 139.63 129.615 143.641 131.935C145.972 133.289 148.292 135.028 150.623 136.483C151.784 137.256 152.518 138.505 153.999 139.01V138.717C153.564 137.643 153.026 136.606 152.391 135.619C151.336 134.659 150.275 133.785 149.215 132.819C146.116 129.071 142.408 125.779 138.221 123.056C134.835 120.923 127.432 118.002 126.067 114.465L125.852 114.268C128.33 113.947 130.772 113.426 133.15 112.711C136.741 111.842 140.017 112.039 143.712 111.195C145.408 110.806 148.474 109.841 148.474 109.841V108.325C146.585 106.607 145.232 104.307 143.243 102.685C137.832 98.3647 132.066 94.4316 125.996 90.9206C122.753 89.0053 118.571 87.7723 115.118 86.14C113.869 85.5639 111.803 85.2809 111.046 84.3207C109.329 82.0162 107.892 79.5473 106.759 76.9578C103.732 71.7021 100.799 65.8754 98.1911 60.3165C96.6477 56.5911 94.8676 52.9515 92.86 49.4161C83.172 34.3488 69.1882 21.9745 52.4046 13.617C48.1698 11.7419 43.6673 10.4217 39.03 9.69543C36.4114 9.59436 33.8039 9.40738 31.1908 9.31641C29.504 8.30553 27.8995 7.18408 26.3901 5.96088C20.4126 2.49922 5.05473 -4.93956 0.657289 4.90975C-2.16017 11.1306 4.84481 17.2454 7.24793 20.4038C9.27425 22.6308 11.0596 25.0324 12.579 27.5748C13.3138 29.202 13.5237 30.9253 14.2363 32.6283C15.7698 37.0001 17.5907 41.2832 19.6889 45.4541C20.8112 47.5156 22.104 49.4956 23.556 51.3768C24.4013 52.433 25.8597 52.8929 26.1746 54.6364C25.0161 56.9143 24.2056 59.3273 23.766 61.8073C21.9398 67.0827 21.2678 72.6354 21.7882 78.1484C22.3086 83.6614 24.0112 89.0266 26.7989 93.9376C28.4562 96.3279 32.4449 101.589 37.7759 99.5773C42.4772 97.8591 41.4331 92.4064 42.7921 87.6308C43.1015 86.4735 42.8971 85.7155 43.5213 84.9524V85.8823C43.5213 85.8823 46.1896 91.244 47.5155 93.9679C51.1212 98.9659 55.6004 103.388 60.7741 107.057C62.8206 108.691 64.4693 110.7 65.6135 112.954V114.687H67.9725C67.9233 113.906 67.6865 113.144 67.2788 112.455C66.871 111.767 66.3025 111.17 65.6135 110.705C63.6791 108.884 61.9074 106.923 60.3156 104.843C55.9914 99.2094 52.1778 93.2619 48.9132 87.0597C47.2558 84.0276 45.8582 80.7024 44.5323 77.6754C43.9246 76.508 43.9246 74.7443 42.9026 74.1379C41.0154 76.1804 39.3779 78.4053 38.019 80.7732C36.3694 85.5591 35.4092 90.5214 35.1629 95.5345C34.7596 95.6356 34.9585 95.5345 34.7596 95.7265C31.5057 94.9432 30.3842 91.7241 29.1578 88.9952C25.9896 80.5788 25.67 71.484 28.2408 62.8989C28.9479 60.8522 32.0139 54.4039 30.7875 52.4482C30.1743 50.5834 28.1358 49.5171 27.0199 48.0466C25.5952 46.0682 24.3693 43.9759 23.3572 41.7954C20.9319 36.3578 19.7055 30.2936 17.0648 24.8156C15.6031 22.181 13.901 19.6638 11.9768 17.2909C9.84837 14.9204 7.97084 12.3704 6.36955 9.67521C5.8613 8.59881 5.14865 6.84019 5.96074 5.66777C6.01555 5.3421 6.18485 5.04163 6.44303 4.81185C6.7012 4.58207 7.03418 4.43548 7.39157 4.39429C8.70638 3.32294 12.4796 4.68739 13.7999 5.2736C17.3485 6.55153 20.7287 8.19076 23.8765 10.1604C25.3018 11.1407 28.6606 13.622 28.6606 13.622H29.655C33.036 14.2941 36.8368 13.809 40.0188 14.6833C45.3766 16.317 50.4896 18.558 55.2386 21.3539C69.2358 29.5161 80.6147 40.9295 88.214 54.4292C89.4846 56.6477 90.0204 58.6842 91.1806 60.9987C93.3904 65.7491 96.1526 70.6004 98.3623 75.2193C100.312 79.7892 102.833 84.1372 105.876 88.1766C107.456 90.198 113.803 91.2693 116.659 92.3306C119.14 93.1155 121.574 94.0179 123.951 95.0342C127.548 97.0556 131.133 99.3853 134.52 101.604C136.205 102.766 141.492 105.182 141.812 107.117" fill="#DDDEDF"/>
    </svg>
    