<svg width="203" height="184" viewBox="0 0 203 184" fill="none" xmlns="http://www.w3.org/2000/svg">
    <path d="M166.907 59.577C164.801 58.8393 162.619 58.1413 160.372 57.4812C160.741 55.9474 161.08 54.4334 161.382 52.9452C166.328 28.5078 163.094 8.8209 152.05 2.33913C141.46 -3.87602 124.14 2.60428 106.649 18.0964C104.967 19.5861 103.28 21.1633 101.594 22.8163C100.471 21.7227 99.349 20.6658 98.2303 19.6549C79.8985 3.08969 61.5238 -3.8911 50.4904 2.60942C39.9104 8.8426 36.7773 27.3502 41.23 50.5096C41.66 52.7466 42.1626 55.031 42.731 57.3536C40.1305 58.1049 37.6199 58.9058 35.2177 59.7579C13.7258 67.3837 0 79.3352 0 91.7321C0 104.536 14.7346 117.378 37.1202 125.165C38.8868 125.779 40.7198 126.36 42.6089 126.912C41.9957 129.424 41.4624 131.885 41.0147 134.286C36.769 157.044 40.0846 175.114 50.6364 181.308C61.5354 187.705 79.827 181.13 97.6384 165.285C99.0462 164.032 100.459 162.704 101.874 161.312C103.709 163.109 105.54 164.811 107.362 166.407C124.615 181.516 141.654 187.617 152.196 181.406C163.085 174.991 166.623 155.58 162.029 131.962C161.678 130.158 161.27 128.315 160.811 126.44C162.096 126.054 163.357 125.655 164.587 125.24C187.859 117.393 203 104.707 203 91.7321C203 79.2903 188.832 67.2583 166.907 59.577ZM161.859 116.862C160.749 117.236 159.61 117.598 158.45 117.948C155.881 109.671 152.413 100.869 148.17 91.7751C152.219 82.8979 155.552 74.2086 158.05 65.9848C160.126 66.5964 162.142 67.2414 164.084 67.9221C182.869 74.5035 194.328 84.2342 194.328 91.7321C194.328 99.7186 181.953 110.086 161.859 116.862ZM153.522 133.676C155.553 144.119 155.843 153.561 154.498 160.943C153.289 167.575 150.857 171.997 147.851 173.768C141.453 177.537 127.772 172.638 113.018 159.717C111.327 158.235 109.623 156.654 107.914 154.98C113.634 148.613 119.35 141.212 124.93 132.992C134.743 132.105 144.015 130.656 152.423 128.678C152.837 130.378 153.205 132.046 153.522 133.676ZM69.2073 173.117C62.9569 175.364 57.9787 175.428 54.9695 173.662C48.5663 169.903 45.9043 155.395 49.5354 135.932C49.9513 133.704 50.4463 131.414 51.0168 129.074C59.3327 130.945 68.5363 132.292 78.3733 133.103C83.9903 141.147 89.8722 148.54 95.7995 155.014C94.5045 156.286 93.2145 157.498 91.9318 158.639C84.0557 165.646 76.163 170.617 69.2073 173.117ZM39.9249 116.813C30.0264 113.37 21.8519 108.895 16.2486 104.012C11.2137 99.6237 8.67173 95.2671 8.67173 91.7321C8.67173 84.2092 19.6922 74.6138 38.0723 68.092C40.3025 67.3006 42.6371 66.5548 45.0598 65.8543C47.6 74.2637 50.9323 83.056 54.9536 91.9468C50.8803 100.97 47.5007 109.902 44.9355 118.41C43.2083 117.905 41.535 117.373 39.9249 116.813ZM49.7406 48.8147C45.9256 28.9723 48.4593 14.0038 54.8351 10.2477C61.6264 6.24636 76.644 11.9515 92.472 26.2547C93.4837 27.1689 94.4995 28.1257 95.5181 29.1157C89.62 35.561 83.7919 42.8989 78.2248 50.895C68.6776 51.7956 59.5386 53.2423 51.1361 55.1795C50.6078 53.0169 50.1399 50.8921 49.7406 48.8147ZM137.306 70.8198C135.297 67.2888 133.235 63.8413 131.133 60.4879C137.61 61.3212 143.815 62.4273 149.643 63.781C147.893 69.4875 145.712 75.4541 143.146 81.5707C141.304 78.0128 139.357 74.4255 137.306 70.8198ZM101.597 35.4231C105.597 39.8334 109.603 44.7575 113.543 50.1C109.572 49.9091 105.553 49.8098 101.5 49.8098C97.4855 49.8098 93.4957 49.9069 89.5499 50.0945C93.4939 44.8016 97.5343 39.8842 101.597 35.4231ZM65.6593 70.8809C63.6528 74.4219 61.7413 77.9897 59.9289 81.5641C57.4035 75.4688 55.243 69.475 53.4783 63.6876C59.2701 62.3685 65.4465 61.2899 71.8823 60.4724C69.7504 63.8567 67.6712 67.3304 65.6593 70.8809ZM72.0676 123.621C65.4183 122.866 59.1491 121.843 53.3587 120.561C55.1516 114.67 57.3598 108.548 59.9386 102.321C61.7558 105.893 63.6749 109.463 65.6936 113.011C67.75 116.627 69.8808 120.168 72.0676 123.621ZM101.837 148.663C97.7266 144.15 93.6268 139.158 89.6228 133.787C93.5098 133.943 97.4725 134.022 101.5 134.022C105.638 134.022 109.728 133.927 113.754 133.745C109.801 139.212 105.81 144.212 101.837 148.663ZM143.228 102.004C145.942 108.298 148.229 114.388 150.045 120.178C144.159 121.545 137.804 122.645 131.109 123.463C133.216 120.065 135.296 116.558 137.34 112.951C139.408 109.301 141.372 105.646 143.228 102.004ZM129.828 108.541C126.655 114.141 123.397 119.486 120.09 124.532C114.066 124.971 107.843 125.196 101.5 125.196C95.1827 125.196 89.0378 124.997 83.1206 124.606C79.6799 119.494 76.3513 114.133 73.1983 108.59C70.0535 103.062 67.16 97.4872 64.5374 91.9439C67.1592 86.3877 70.046 80.8069 73.1726 75.289L73.1719 75.2901C76.3068 69.7575 79.6062 64.4223 83.0151 59.3424C89.0523 58.8779 95.2431 58.6356 101.5 58.6356C107.784 58.6356 113.983 58.8797 120.019 59.3482C123.376 64.391 126.653 69.7089 129.8 75.2423C132.983 80.8378 135.907 86.3815 138.551 91.8185C135.915 97.3489 132.997 102.948 129.828 108.541ZM147.718 9.98516C154.516 13.9748 157.159 30.0648 152.888 51.1638C152.616 52.5101 152.309 53.8814 151.976 55.2711C143.554 53.2934 134.408 51.8217 124.833 50.9075C119.255 42.8235 113.475 35.4743 107.673 29.1116C109.233 27.5844 110.791 26.1282 112.342 24.7539C127.329 11.4804 141.336 6.23974 147.718 9.98516ZM101.5 73.2837C111.511 73.2837 119.627 81.5431 119.627 91.7321C119.627 101.921 111.511 110.18 101.5 110.18C91.4888 110.18 83.3728 101.921 83.3728 91.7321C83.3728 81.5431 91.4888 73.2837 101.5 73.2837Z" fill="#00D8FF"/>
    </svg>
    